<svg id="eWDTkhXftR11" xmlns="http://www.w3.org/2000/svg" xmlns:xlink="http://www.w3.org/1999/xlink" viewBox="0 0 300 300" shape-rendering="geometricPrecision" text-rendering="geometricPrecision" project-id="553626fa45bc4e9f9cf58a8ed5c75533" export-id="9c5c66b2b2ac4e468d414553b113f596" cached="false"><rect width="42.098666" height="37.724779" rx="0" ry="0" transform="translate(132.091479 197.15546)" fill="#cfb8a4" stroke="#000" stroke-width="3"/><g transform="translate(.000001 0)"><rect width="118.74032" height="126.484254" rx="46" ry="46" transform="matrix(.850325 0 0 0.987857 102.355511 81.304862)" fill="#eccab8" stroke="#000" stroke-width="4" stroke-linecap="round" stroke-linejoin="round"/><path d="M155.263405,144.535109l-9.460824,16.929897l9.211855,5.726288" transform="translate(-3.236598 0.248969)" fill="none" stroke="#000" stroke-width="3" stroke-linecap="round" stroke-linejoin="round"/><ellipse rx="30" ry="30" transform="matrix(.1 0 0 0.1 132.109281 137.066037)" stroke-width="0"/><ellipse rx="30" ry="30" transform="matrix(.1 0 0 0.1 172.193301 147.273769)" stroke-width="0"/><path d="M138.507189,176.458084l8.540237,1.189911l3.983504,2.489691l5.22835-1.991754l7.972452-.56939" transform="translate(.000003 2.496561)" fill="none" stroke="#000" stroke-width="3" stroke-linecap="round" stroke-linejoin="round"/><path d="M128.281745,109.166383q-6.22964,19.558171,13.328532,3.042383-1.832555,19.832523,19.907089-.071032q20.002485,29.401244,21.207454,6.988819q12.290684,20.725467,13.013665,4.337888q0,.240994,2.585664,22.287697l8.50005-18.431797q7.470807-.481988,1.445963-14.459627q4.096894-15.423603-10.844721-19.761491-.481988-18.074533-21.448447-15.18261-.240994-13.013663-18.074535-2.891927-22.171429-12.531677-20.243479.963975-16.387578-6.024845-19.279503,5.301864c-24.099378,1.686957-15.905592,14.941615-15.905592,15.182609q-12.772672,6.747827-4.096894,16.387578l9.297401,34.013639-.380631-31.121714q3.168316,20.360555,20.987983-6.586258" transform="matrix(1.132986 0 0 1.076706-20.04924-5.639774)" stroke-width="3" stroke-linecap="round" stroke-linejoin="round"/><path d="" fill="none" stroke="#3f5787" stroke-width="0.6"/><path d="" fill="none" stroke="#3f5787" stroke-width="0.6"/><path d="" fill="none" stroke="#3f5787" stroke-width="0.6"/><path d="M203.716849,145.792065q10.076856-9.187722,9.780478,4.445671t-9.780479,17.782685l.000001-22.228356Z" transform="translate(.000001 0.000001)" fill="#c8aaa0" stroke="#000" stroke-width="3"/><path d="M203.716849,145.792065q10.076856-9.187722,9.780478,4.445671t-9.780479,17.782685l.000001-22.228356Z" transform="matrix(-1 0 0 1 305.267158-2.423251)" fill="#c8aaa0" stroke="#000" stroke-width="3"/></g><rect width="155.061216" height="69.381745" rx="26" ry="26" transform="matrix(1 0 0 1.402689 75.367375 228.943892)" fill="#18370f" stroke="#000" stroke-width="3" stroke-linecap="round" stroke-linejoin="round"/></svg>
