<svg id="eF8KsDXqgrB1" xmlns="http://www.w3.org/2000/svg" xmlns:xlink="http://www.w3.org/1999/xlink" viewBox="0 0 300 300" shape-rendering="geometricPrecision" text-rendering="geometricPrecision" project-id="7e6d08533c2546158c69a93c69be939f" export-id="40873224428d43a09592a4a9e924d3f4" cached="false"><rect width="42.098666" height="37.724779" rx="0" ry="0" transform="translate(132.091479 197.15546)" fill="#cfb8a4" stroke="#000" stroke-width="3"/><rect width="118.74032" height="126.484254" rx="46" ry="46" transform="matrix(.742454 0 0 0.968788 109.025627 82.510826)" fill="#ffe5d9" stroke="#000" stroke-width="4" stroke-linecap="round" stroke-linejoin="round"/><path d="M152.418238,151.417165c0,0,.077621,9.62089.077621,9.62089s-2.642401,5.179105-2.642401,5.179105q5.895112,6.687034,11.359321.494264" transform="translate(-4.114573-4.430553)" fill="none" stroke="#000" stroke-width="3" stroke-linecap="round" stroke-linejoin="round"/><ellipse rx="30" ry="30" transform="matrix(.1 0 0 0.1 132.109281 137.066037)" stroke-width="0"/><ellipse rx="30" ry="30" transform="matrix(.1 0 0 0.1 172.193301 147.273769)" stroke-width="0"/><path d="M140.455548,176.355017l5.261558,2.595075l5.313824,1.187594l6.443727-.207798l6.123725-2.939388" transform="translate(.000003 2.496561)" fill="none" stroke="#000" stroke-width="3" stroke-linecap="round" stroke-linejoin="round"/><path d="" fill="none" stroke="#3f5787" stroke-width="0.6"/><path d="" fill="none" stroke="#3f5787" stroke-width="0.6"/><path d="" fill="none" stroke="#3f5787" stroke-width="0.6"/><path d="M203.716849,145.792065q10.076856-9.187722,9.780478,4.445671t-9.780479,17.782685l.000001-22.228356Z" transform="translate(-4.3861-6.726592)" fill="#c8aaa0" stroke="#000" stroke-width="3"/><path d="M203.716849,145.792065q10.076856-9.187722,9.780478,4.445671t-9.780479,17.782685l.000001-22.228356Z" transform="matrix(-1 0 0 1 310.530229-8.857813)" fill="#c8aaa0" stroke="#000" stroke-width="3"/><rect width="155.061216" height="69.381745" rx="26" ry="26" transform="matrix(1 0 0 1.402689 75.367375 229.232361)" fill="#6367a3" stroke="#000" stroke-width="3" stroke-linecap="round" stroke-linejoin="round"/><path d="" fill="none" stroke="#3f5787" stroke-width="0.6"/><path d="M105.433413,97.147899q3.673211-20.105997,27.452418-19.526016q11.79294-6.76644,23.972534-.966634q24.939168-7.539748,37.312089,15.272824q6.379786,4.059864,9.27969,13.339555q5.0265,15.46615,5.0265,14.692843q1.651667,6.329442,1.889131,6.161288q3.759503,11.278509-15.616398-2.313541q8.386585,23.135404-21.689441-13.013665q17.640748,30.654412-20.53267-.578384c-.578385,0,8.386586,26.605717-18.797515-3.181117q-1.445963,17.92994-11.856895-3.181117L115.221428,116.8676l-13.59205,13.59205q-13.402058-13.592408,3.804035-33.311751Z" transform="matrix(.92814 0 0 1.004561 13.80987 1.661335)" fill="#633415" stroke="#000" stroke-width="3" stroke-linecap="round" stroke-linejoin="round"/></svg>
