<svg id="eAIOGglY90s1" xmlns="http://www.w3.org/2000/svg" xmlns:xlink="http://www.w3.org/1999/xlink" viewBox="0 0 300 300" shape-rendering="geometricPrecision" text-rendering="geometricPrecision" project-id="3b7058933c7c4cea963b4cea2a69fb8e" export-id="9b6819aea9714c3f97cc83f74dec9142" cached="false"><defs><linearGradient id="eAIOGglY90s2-fill" x1="0" y1="0.5" x2="1" y2="0.5" spreadMethod="pad" gradientUnits="objectBoundingBox" gradientTransform="translate(0 0)"><stop id="eAIOGglY90s2-fill-0" offset="0%" stop-color="#ffd166"/><stop id="eAIOGglY90s2-fill-1" offset="49%" stop-color="#00a896"/><stop id="eAIOGglY90s2-fill-2" offset="100%" stop-color="#005f73"/></linearGradient></defs><ellipse rx="150" ry="150" transform="translate(150 150)" fill="url(#eAIOGglY90s2-fill)" stroke-width="0"/><rect width="29.1761" height="43.7641" rx="14" ry="14" transform="translate(88.193 191.643)" fill="#18454c" stroke="#000" stroke-width="5"/><rect width="29.1761" height="43.7641" rx="14" ry="14" transform="translate(185.203 191.643)" fill="#18454c" stroke="#000" stroke-width="5"/><path d="M79.6366,213.10326c-12.70255,0-23-10.29745-23-23v-112.28014c0-12.70255,10.29745-23,23-23h140.7268c12.70255,0,23,10.29745,23,23v112.28014c0,12.70255-10.29745,23-23,23h-140.7268Zm137.00801-57.99744c8.60776,0,15.58572-7.44897,15.58572-16.63773v-53.60335h-74.93092v70.24108h59.3452Zm0-88.92016h-59.3452v9.48884h73.42284c-2.50495-5.61111-7.86708-9.48884-14.07764-9.48884Zm-133.28922,0c-6.21056,0-11.57269,3.87773-14.07764,9.48884h76.57176v-9.48884h-62.49412ZM67.76967,138.46809c0,9.18876,6.97796,16.63773,15.58572,16.63773h62.49412v-70.24108h-78.07984v53.60335Z" fill="#00a896" stroke="#000" stroke-width="5"/><ellipse rx="30" ry="30" transform="matrix(.4 0 0 0.4 100.193 174.137)" fill="#ffd166" stroke-width="0"/><ellipse rx="30" ry="30" transform="matrix(.4 0 0 0.4 202.38 174.137)" fill="#ffd166" stroke-width="0"/><path d="" transform="matrix(-1 0 0 1 224.386 0)" fill="none" stroke="#3f5787" stroke-width="0.6"/><path d="" fill="none" stroke="#3f5787" stroke-width="0.6"/></svg>
