<svg id="erZaLyqNzYT1" xmlns="http://www.w3.org/2000/svg" xmlns:xlink="http://www.w3.org/1999/xlink" viewBox="0 0 300 300" shape-rendering="geometricPrecision" text-rendering="geometricPrecision" project-id="553626fa45bc4e9f9cf58a8ed5c75533" export-id="0f4c506aa7ed495196779ec2c014d6f6" cached="false"><g transform="matrix(1.335207 0 0 1.329586-48.17876-42.942839)"><rect width="29.176063" height="43.764094" rx="14" ry="14" transform="translate(88.193037 191.642731)" fill="#18454c" stroke-width="0"/><rect width="29.176063" height="43.764094" rx="14" ry="14" transform="translate(185.203448 191.642731)" fill="#18454c" stroke-width="0"/><path d="M78.36997,213.10326c-12.70255,0-23-10.29745-23-23v-112.28014c0-12.70255,10.29745-23,23-23h140.7268c12.70255,0,23,10.29745,23,23v112.28014c0,12.70255-10.29745,23-23,23h-140.7268Zm137.00801-57.99744c8.60776,0,15.58572-7.44897,15.58572-16.63773v-55.6447c0-9.18876-6.97796-16.63773-15.58572-16.63773h-133.28922c-8.60776,0-15.58572,7.44897-15.58572,16.63773v55.6447c0,9.18876,6.97796,16.63773,15.58572,16.63773h133.28922Z" transform="translate(-.307878 0)" fill="#00a896" stroke-width="0"/><ellipse rx="30" ry="30" transform="matrix(.4 0 0 0.4 100.193037 174.137093)" fill="#ffd166" stroke-width="0"/><ellipse rx="30" ry="30" transform="matrix(.4 0 0 0.4 202.379511 174.137093)" fill="#ffd166" stroke-width="0"/><path d="" transform="matrix(-1 0 0 1 224.386074 0)" fill="none" stroke="#3f5787" stroke-width="0.6"/><path d="" fill="none" stroke="#3f5787" stroke-width="0.6"/><rect width="11.449868" height="103.594047" rx="0" ry="0" transform="translate(144.275066 58.543046)" fill="#00a896" stroke-width="0"/><rect width="11.449868" height="103.594047" rx="0" ry="0" transform="matrix(14.715639 0 0 0.088714 65.753938 75.674472)" fill="#00a896" stroke-width="0"/></g></svg>
