<svg id="ewKPkHrZJst1" xmlns="http://www.w3.org/2000/svg" xmlns:xlink="http://www.w3.org/1999/xlink" viewBox="0 0 300 300" shape-rendering="geometricPrecision" text-rendering="geometricPrecision" project-id="1bcb85ca43b945f2922d29fbd8559c49" export-id="07a280d76fb2482b89a8ab6cdeac1d55" cached="false"><g transform="matrix(1.33521 0 0 1.32959-48.1788-42.9428)"><rect width="29.1761" height="43.7641" rx="14" ry="14" transform="translate(88.193 191.643)" fill="#18454c" stroke="#000" stroke-width="6"/><rect width="29.1761" height="43.7641" rx="14" ry="14" transform="translate(185.2039 191.643)" fill="#18454c" stroke="#000" stroke-width="6"/><path d="M78.06209,213.10326c-12.70255,0-23-10.29745-23-23v-112.28014c0-12.70255,10.29745-23,23-23h140.7268c12.70255,0,23,10.29745,23,23v112.28014c0,12.70255-10.29745,23-23,23h-140.7268ZM215.0701,155.10582c8.60776,0,15.58572-7.44897,15.58572-16.63773v-53.60335h-74.93092v70.24108h59.3452Zm0-88.92016h-59.3452v9.48884h73.42284c-2.50495-5.61111-7.86708-9.48884-14.07764-9.48884Zm-133.28922,0c-6.21056,0-11.57269,3.87773-14.07764,9.48884h76.57176v-9.48884h-62.49412ZM66.19516,138.46809c0,9.18876,6.97796,16.63773,15.58572,16.63773h62.49412v-70.24108h-78.07984v53.60335Z" fill="#00a896" stroke="#000" stroke-width="6"/><ellipse rx="30" ry="30" transform="matrix(.4 0 0 0.4 100.193 174.137)" fill="#ffd166" stroke="#000" stroke-width="10"/><ellipse rx="30" ry="30" transform="matrix(.4 0 0 0.4 202.38 174.137)" fill="#ffd166" stroke="#000" stroke-width="10"/><path d="" transform="matrix(-1 0 0 1 224.386 0)" fill="none" stroke="#3f5787" stroke-width="0.6"/><path d="" fill="none" stroke="#3f5787" stroke-width="0.6"/></g></svg>
