<svg id="egM5x8fp7wD1" xmlns="http://www.w3.org/2000/svg" xmlns:xlink="http://www.w3.org/1999/xlink" viewBox="0 0 300 300" shape-rendering="geometricPrecision" text-rendering="geometricPrecision" project-id="c617059af1364d4eb1af8b20549638eb" export-id="0bfc91c82c4849c38c244808885c364e" cached="false"><rect width="42.098666" height="37.724779" rx="0" ry="0" transform="translate(132.091479 196.915791)" fill="#b59c87" stroke="#000" stroke-width="3"/><g transform="matrix(.93079 0.002575-.002638 0.95348 11.555623 8.367969)"><rect width="118.74032" height="126.484254" rx="46" ry="46" transform="matrix(.850325 0 0 0.987857 102.355511 81.304862)" fill="#cfa995" stroke="#000" stroke-width="4" stroke-linecap="round" stroke-linejoin="round"/><path d="M155.263405,144.535109c0,0-10.594139,12.53766-9.460824,16.929897s9.211855,5.726288,9.211855,5.726288" transform="translate(-3.236598 0.248969)" fill="none" stroke="#000" stroke-width="3" stroke-linecap="round" stroke-linejoin="round"/><ellipse rx="30" ry="30" transform="matrix(.1 0 0 0.1 132.109281 137.066037)" stroke-width="0"/><ellipse rx="30" ry="30" transform="matrix(.1 0 0 0.1 172.193301 147.273769)" stroke-width="0"/><path d="M166.976204,176.938364l-29.162702-1.722692c0,0,3.404413,5.722922,5.291123,7.013815s7.506012,2.337938,7.506012,2.337938s6.457747-.196238,8.613456-1.107445s7.752111-6.521616,7.752111-6.521616Z" transform="translate(.300417 5.200283)" stroke="#000" stroke-width="3" stroke-linecap="round" stroke-linejoin="round"/><path d="" fill="none" stroke="#3f5787" stroke-width="0.6"/><path d="" fill="none" stroke="#3f5787" stroke-width="0.6"/><path d="" fill="none" stroke="#3f5787" stroke-width="0.6"/><path d="M203.716849,145.792065q10.076856-9.187722,9.780478,4.445671t-9.780479,17.782685l.000001-22.228356Z" transform="translate(.000001 0.000001)" fill="#9f877e" stroke="#000" stroke-width="3"/><path d="M203.716849,145.792065q10.076856-9.187722,9.780478,4.445671t-9.780479,17.782685l.000001-22.228356Z" transform="matrix(-1 0 0 1 305.267158-1.954243)" fill="#b69990" stroke="#000" stroke-width="3"/></g><rect width="155.061216" height="69.381745" rx="26" ry="26" transform="matrix(1 0 0 1.402689 75.367375 228.943892)" fill="#953e3e" stroke="#000" stroke-width="3" stroke-linecap="round" stroke-linejoin="round"/><g transform="matrix(.95405 0 0 1.077485 6.058957 2.030177)"><ellipse rx="4.052808" ry="3.929995" transform="matrix(1 0 0 0.988505 103.472481 122.005661)" stroke-width="0"/><ellipse rx="5.894993" ry="5.77218" transform="matrix(1 0 0 0.988505 105.560291 114.514108)" stroke-width="0"/><ellipse rx="8.228427" ry="7.491554" transform="matrix(1 0 0 0.988505 107.648101 103.215372)" stroke-width="0"/><ellipse rx="8.965302" ry="8.842489" transform="matrix(1 0 0 0.988505 118.701213 94.741319)" stroke-width="0"/><ellipse rx="13.386546" ry="11.789986" transform="matrix(1 0 0 0.988505 130.736823 86.881329)" stroke-width="0"/><ellipse rx="17.316541" ry="16.211231" transform="matrix(1 0 0 0.988505 176.423017 92.039448)" stroke-width="0"/><ellipse rx="15.719981" ry="15.351544" transform="matrix(1 0 0 0.988505 153.211483 83.074146)" stroke-width="0"/><ellipse rx="8.474052" ry="8.719677" transform="matrix(1 0 0 0.988505 196.072993 101.250374)" stroke-width="0"/><ellipse rx="6.386242" ry="6.386242" transform="matrix(1 0 0 0.988505 201.594918 114.14104)" stroke-width="0"/><ellipse rx="4.940372" ry="5.06087" transform="matrix(1 0 0 0.988505 204.860085 124.491899)" stroke-width="0"/></g></svg>
